<svg width="35" height="35" viewBox="0 0 35 35" fill="none" xmlns="http://www.w3.org/2000/svg">
<g clip-path="url(#clip0)">
<path d="M35 17.5C35 7.85019 27.1498 0 17.5 0C7.85019 0 0 7.85019 0 17.5C0 27.1498 7.85019 35 17.5 35C27.1498 35 35 27.1498 35 17.5ZM16.4689 22.9061L9.17731 15.6144C8.89294 15.33 8.75 14.9567 8.75 14.5833C8.75 14.21 8.89294 13.8366 9.17731 13.5522C9.7475 12.9821 10.6692 12.9821 11.2394 13.5522L17.5 19.8129L23.7606 13.5523C24.3308 12.9821 25.2525 12.9821 25.8227 13.5523C26.3929 14.1225 26.3929 15.0442 25.8227 15.6144L18.531 22.9061C17.9608 23.4762 17.0392 23.4762 16.4689 22.9061Z" fill="white"/>
</g>
<defs>
<clipPath id="clip0">
<rect width="35" height="35" fill="white" transform="translate(35) rotate(90)"/>
</clipPath>
</defs>
</svg>
